<svg width="34" height="34" viewBox="0 0 34 34" fill="none" xmlns="http://www.w3.org/2000/svg">
<g id="chat-alt">
<path id="Combined Shape" d="M29.75 24.0837L29.75 24.5837C30.0261 24.5837 30.25 24.3598 30.25 24.0837H29.75ZM29.75 5.66699H30.25C30.25 5.39085 30.0261 5.16699 29.75 5.16699V5.66699ZM18.4167 24.0837L18.4167 23.5837C18.318 23.5837 18.2214 23.6129 18.1393 23.6676L18.4167 24.0837ZM9.91667 29.7503H9.41667C9.41667 29.9347 9.51816 30.1042 9.68074 30.1912C9.84332 30.2782 10.0406 30.2686 10.194 30.1664L9.91667 29.7503ZM9.91667 24.0837H10.4167C10.4167 23.8075 10.1928 23.5837 9.91667 23.5837V24.0837ZM4.25 24.0837H3.75C3.75 24.3598 3.97386 24.5837 4.25 24.5837V24.0837ZM4.25 5.66699V5.16699C3.97386 5.16699 3.75 5.39085 3.75 5.66699H4.25ZM30.25 24.0837V5.66699H29.25V24.0837H30.25ZM18.4167 24.5837L29.75 24.5837L29.75 23.5837L18.4167 23.5837L18.4167 24.5837ZM10.194 30.1664L18.694 24.4997L18.1393 23.6676L9.63932 29.3343L10.194 30.1664ZM9.41667 24.0837V29.7503H10.4167V24.0837H9.41667ZM4.25 24.5837H9.91667V23.5837H4.25V24.5837ZM3.75 5.66699V24.0837H4.75V5.66699H3.75ZM29.75 5.16699H4.25V6.16699H29.75V5.16699Z" fill="#FAFAFA"/>
</g>
</svg>
